<svg xmlns="http://www.w3.org/2000/svg" xmlns:xlink="http://www.w3.org/1999/xlink" viewBox="0 0 104.821 24.16" overflow="visible"><g><path d="M 0.25 0 L 104.821 0 L 104.821 24.16 L 0.25 24.16 Z" fill="transparent"></path><path d="M 47.155 23.755 L 43.024 23.755 L 37.686 6.67 L 41.992 6.67 L 45.262 18.97 L 48.705 6.67 L 52.837 6.67 L 56.452 18.97 L 59.723 6.67 L 63.853 6.67 L 58.517 23.755 L 54.387 23.755 L 50.77 11.454 Z M 70.048 24.097 C 66.605 24.097 63.85 22.046 63.85 18.971 C 63.85 15.898 66.088 14.325 69.359 13.848 L 72.803 13.335 C 73.836 13.165 74.87 12.823 74.87 11.626 C 74.87 10.089 73.321 9.405 71.942 9.405 C 69.876 9.405 68.498 10.43 68.327 12.48 L 64.195 12.48 C 64.195 8.722 67.466 6.33 71.942 6.33 C 76.418 6.33 79.172 8.72 79.172 12.82 L 79.172 23.755 L 75.213 23.755 L 75.213 21.703 C 74.007 23.413 72.114 24.095 70.048 24.095 Z M 70.91 21.021 C 72.976 21.021 75.04 19.654 75.04 17.263 L 75.04 15.725 L 71.771 16.237 C 69.704 16.545 68.155 17.092 68.155 18.8 C 68.155 20.337 69.533 21.022 70.91 21.022 L 70.91 21.02 Z M 90.548 24.097 C 87.656 24.097 85.796 22.73 85.211 21.705 L 85.211 23.757 L 81.251 23.757 L 81.251 0.519 L 85.382 0.519 L 85.382 8.719 C 85.899 7.695 87.655 6.328 90.546 6.328 C 95.367 6.328 98.464 10.085 98.464 15.212 C 98.464 20.68 95.365 24.097 90.546 24.097 Z M 89.858 20.679 C 92.784 20.679 94.334 18.628 94.334 15.212 C 94.334 12.478 92.786 9.779 89.858 9.779 C 86.76 9.779 85.383 12.479 85.383 15.212 C 85.383 17.946 86.76 20.68 89.858 20.68 Z M 102.256 4.791 C 100.879 4.791 99.847 3.766 99.847 2.399 C 99.847 1.032 100.879 0.008 102.256 0.008 C 103.633 0.008 104.666 1.033 104.666 2.399 C 104.666 3.766 103.633 4.791 102.256 4.791 Z M 104.323 23.755 L 100.192 23.755 L 100.192 6.67 L 104.323 6.67 Z" fill="rgb(112, 112, 112)" opacity="0.9"></path><path d="M 9.601 11.103 C 9.601 8.473 7.452 6.339 4.801 6.339 C 2.149 6.339 0 8.472 0 11.104 C 0 13.735 2.149 15.867 4.8 15.867 C 7.452 15.867 9.6 13.735 9.6 11.104 Z" fill="rgb(112, 112, 112)"></path><path d="M 19.184 11.113 C 19.184 8.482 17.035 6.35 14.384 6.35 C 11.732 6.35 9.584 8.482 9.584 11.114 C 9.584 13.745 11.732 15.878 14.384 15.878 C 17.035 15.878 19.184 13.745 19.184 11.114 Z" fill="rgb(112, 112, 112)"></path><path d="M 28.777 11.103 C 28.777 8.473 26.628 6.339 23.977 6.339 C 21.325 6.339 19.177 8.472 19.177 11.104 C 19.177 13.735 21.325 15.867 23.977 15.867 C 26.628 15.867 28.777 13.735 28.777 11.104 Z" fill="rgb(112, 112, 112)"></path><path d="M 23.975 19.345 C 23.975 16.713 21.826 14.581 19.175 14.581 C 16.523 14.581 14.375 16.713 14.375 19.345 C 14.375 21.976 16.523 24.109 19.175 24.109 C 21.826 24.109 23.975 21.976 23.975 19.345 Z" fill="rgb(112, 112, 112)"></path><path d="M 14.392 19.329 C 14.392 16.698 12.243 14.565 9.592 14.565 C 6.94 14.565 4.791 16.698 4.791 19.329 C 4.791 21.961 6.94 24.094 9.591 24.094 C 12.243 24.094 14.391 21.961 14.391 19.329 Z" fill="rgb(112, 112, 112)"></path></g></svg>